<svg width="240" height="73" viewBox="0 0 240 73" fill="none" xmlns="http://www.w3.org/2000/svg">
<path d="M9.24953 29.04C9.46286 25.76 9.56953 21.64 9.56953 16.68C9.56953 12.92 9.5162 9.76 9.40953 7.2H3.12953C2.3562 7.2 1.7562 6.86667 1.32953 6.2C0.929531 5.53333 0.729531 4.76 0.729531 3.88C0.729531 2.94667 0.982865 2.18667 1.48953 1.6C1.9962 1.01333 2.9162 0.719997 4.24953 0.719997H22.2495C23.0229 0.719997 23.6095 1.05333 24.0095 1.72C24.4362 2.38666 24.6495 3.16 24.6495 4.04C24.6495 4.97333 24.3962 5.73333 23.8895 6.32C23.3829 6.90667 22.4629 7.2 21.1295 7.2H16.8895C16.9695 9.70667 17.0095 12.4267 17.0095 15.36C17.0095 20.3467 16.9029 25.04 16.6895 29.44C16.6362 30.6133 16.3029 31.3733 15.6895 31.72C15.1029 32.0667 14.1962 32.24 12.9695 32.24C11.7695 32.24 10.8229 32 10.1295 31.52C9.46286 31.04 9.16953 30.2133 9.24953 29.04ZM28.4289 29.04C28.6422 25.84 28.7489 22.1333 28.7489 17.92C28.7489 13.8667 28.6422 9.2 28.4289 3.92C28.3756 2.72 28.6689 1.89333 29.3089 1.44C29.9756 0.959997 30.9089 0.719997 32.1089 0.719997H46.0289C46.8022 0.719997 47.3889 1.05333 47.7889 1.72C48.2156 2.38666 48.4289 3.16 48.4289 4.04C48.4289 4.97333 48.1756 5.73333 47.6689 6.32C47.1622 6.90667 46.2422 7.2 44.9089 7.2H36.0289L36.1489 13.2H45.2289C45.9756 13.2 46.5622 13.48 46.9889 14.04C47.4156 14.5733 47.6289 15.3067 47.6289 16.24C47.6289 17.2 47.3089 17.9733 46.6689 18.56C46.0289 19.1467 45.1756 19.44 44.1089 19.44H36.1489L36.0289 25.76H46.4289C47.2022 25.76 47.7889 26.0933 48.1889 26.76C48.6156 27.4267 48.8289 28.2 48.8289 29.08C48.8289 30.0133 48.5756 30.7733 48.0689 31.36C47.5622 31.9467 46.6422 32.24 45.3089 32.24H32.1089C30.9089 32.24 29.9756 32.0133 29.3089 31.56C28.6422 31.08 28.3489 30.24 28.4289 29.04ZM53.468 29.04C53.6813 25.3333 53.788 21.3067 53.788 16.96C53.788 12.7467 53.6813 8.4 53.468 3.92C53.4146 2.72 53.7213 1.89333 54.388 1.44C55.0546 0.959997 55.988 0.719997 57.188 0.719997L58.068 0.759999C60.388 0.573332 62.9213 0.479998 65.668 0.479998C69.6146 0.479998 72.6013 1.34666 74.628 3.08C76.6813 4.78666 77.708 7.30667 77.708 10.64C77.708 12.3467 77.4013 13.9067 76.788 15.32C76.1746 16.7067 75.308 17.8267 74.188 18.68C73.0946 19.5067 71.8546 19.9733 70.468 20.08L77.228 26.76C77.948 27.4 78.308 28.0667 78.308 28.76C78.308 29.56 77.7613 30.48 76.668 31.52C75.6546 32.48 74.7213 32.96 73.868 32.96C73.1213 32.96 72.4013 32.56 71.708 31.76L69.948 29.72C68.8013 28.3333 67.5613 26.8533 66.228 25.28C64.9213 23.7067 63.748 22.24 62.708 20.88C62.2546 20.2667 62.028 19.48 62.028 18.52C62.028 17.56 62.2546 16.72 62.708 16C63.1613 15.28 63.7613 14.92 64.508 14.92C66.3746 14.92 67.8013 14.56 68.788 13.84C69.8013 13.0933 70.308 12.0267 70.308 10.64C70.308 9.33333 69.9213 8.34667 69.148 7.68C68.3746 7.01333 67.2413 6.68 65.748 6.68C64.0413 6.68 62.4813 6.73333 61.068 6.84C61.148 9.66667 61.188 12.5733 61.188 15.56C61.188 20.44 61.0946 25.0667 60.908 29.44C60.8546 30.6133 60.5213 31.3733 59.908 31.72C59.3213 32.0667 58.4146 32.24 57.188 32.24C55.988 32.24 55.0413 32 54.348 31.52C53.6813 31.04 53.388 30.2133 53.468 29.04ZM107.61 20.96C107.556 24.88 106.436 27.84 104.25 29.84C102.09 31.8133 99.0762 32.8 95.2095 32.8C91.3429 32.8 88.3029 31.8133 86.0895 29.84C83.9029 27.84 82.8095 24.88 82.8095 20.96C82.8095 13.36 82.7295 7.68 82.5695 3.92C82.5429 2.72 82.8495 1.89333 83.4895 1.44C84.1562 0.959997 85.0895 0.719997 86.2895 0.719997C87.5162 0.719997 88.4229 0.893331 89.0095 1.24C89.5962 1.58666 89.9162 2.34667 89.9695 3.52C90.1295 6.74667 90.2095 10.8 90.2095 15.68V20.96C90.2095 22.6933 90.6629 23.9733 91.5695 24.8C92.4762 25.6 93.6895 26 95.2095 26C96.7029 26 97.9029 25.6 98.8095 24.8C99.7162 23.9733 100.183 22.6933 100.21 20.96C100.236 20 100.25 18.4533 100.25 16.32C100.25 12.5333 100.17 8.4 100.01 3.92C99.9562 2.72 100.25 1.89333 100.89 1.44C101.556 0.959997 102.49 0.719997 103.69 0.719997C104.916 0.719997 105.823 0.893331 106.41 1.24C106.996 1.58666 107.316 2.34667 107.37 3.52C107.556 6.85333 107.65 10.7467 107.65 15.2C107.65 17.8667 107.636 19.7867 107.61 20.96ZM114.392 21.04C113.618 21.04 113.018 20.7467 112.592 20.16C112.165 19.5467 111.952 18.7067 111.952 17.64C111.952 16.5733 112.165 15.7467 112.592 15.16C113.018 14.5467 113.618 14.24 114.392 14.24H127.552C128.325 14.24 128.925 14.5467 129.352 15.16C129.805 15.7467 130.032 16.5733 130.032 17.64C130.032 18.7067 129.805 19.5467 129.352 20.16C128.925 20.7467 128.325 21.04 127.552 21.04H114.392ZM140.968 29.04C141.182 25.76 141.288 21.64 141.288 16.68C141.288 12.92 141.235 9.76 141.128 7.2H134.848C134.075 7.2 133.475 6.86667 133.048 6.2C132.648 5.53333 132.448 4.76 132.448 3.88C132.448 2.94667 132.702 2.18667 133.208 1.6C133.715 1.01333 134.635 0.719997 135.968 0.719997H153.968C154.742 0.719997 155.328 1.05333 155.728 1.72C156.155 2.38666 156.368 3.16 156.368 4.04C156.368 4.97333 156.115 5.73333 155.608 6.32C155.102 6.90667 154.182 7.2 152.848 7.2H148.608C148.688 9.70667 148.728 12.4267 148.728 15.36C148.728 20.3467 148.622 25.04 148.408 29.44C148.355 30.6133 148.022 31.3733 147.408 31.72C146.822 32.0667 145.915 32.24 144.688 32.24C143.488 32.24 142.542 32 141.848 31.52C141.182 31.04 140.888 30.2133 140.968 29.04ZM160.148 29.04C160.361 25.84 160.468 22.1333 160.468 17.92C160.468 13.8667 160.361 9.2 160.148 3.92C160.094 2.72 160.388 1.89333 161.028 1.44C161.694 0.959997 162.628 0.719997 163.828 0.719997H177.748C178.521 0.719997 179.108 1.05333 179.508 1.72C179.934 2.38666 180.148 3.16 180.148 4.04C180.148 4.97333 179.894 5.73333 179.388 6.32C178.881 6.90667 177.961 7.2 176.628 7.2H167.748L167.868 13.2H176.948C177.694 13.2 178.281 13.48 178.708 14.04C179.134 14.5733 179.348 15.3067 179.348 16.24C179.348 17.2 179.028 17.9733 178.388 18.56C177.748 19.1467 176.894 19.44 175.828 19.44H167.868L167.748 25.76H178.148C178.921 25.76 179.508 26.0933 179.908 26.76C180.334 27.4267 180.548 28.2 180.548 29.08C180.548 30.0133 180.294 30.7733 179.788 31.36C179.281 31.9467 178.361 32.24 177.028 32.24H163.828C162.628 32.24 161.694 32.0133 161.028 31.56C160.361 31.08 160.068 30.24 160.148 29.04ZM185.187 29.04C185.4 25.3333 185.507 21.3067 185.507 16.96C185.507 12.7467 185.4 8.4 185.187 3.92C185.133 2.72 185.44 1.89333 186.107 1.44C186.773 0.959997 187.707 0.719997 188.907 0.719997L189.787 0.759999C192.107 0.573332 194.64 0.479998 197.387 0.479998C201.333 0.479998 204.32 1.34666 206.347 3.08C208.4 4.78666 209.427 7.30667 209.427 10.64C209.427 12.3467 209.12 13.9067 208.507 15.32C207.893 16.7067 207.027 17.8267 205.907 18.68C204.813 19.5067 203.573 19.9733 202.187 20.08L208.947 26.76C209.667 27.4 210.027 28.0667 210.027 28.76C210.027 29.56 209.48 30.48 208.387 31.52C207.373 32.48 206.44 32.96 205.587 32.96C204.84 32.96 204.12 32.56 203.427 31.76L201.667 29.72C200.52 28.3333 199.28 26.8533 197.947 25.28C196.64 23.7067 195.467 22.24 194.427 20.88C193.973 20.2667 193.747 19.48 193.747 18.52C193.747 17.56 193.973 16.72 194.427 16C194.88 15.28 195.48 14.92 196.227 14.92C198.093 14.92 199.52 14.56 200.507 13.84C201.52 13.0933 202.027 12.0267 202.027 10.64C202.027 9.33333 201.64 8.34667 200.867 7.68C200.093 7.01333 198.96 6.68 197.467 6.68C195.76 6.68 194.2 6.73333 192.787 6.84C192.867 9.66667 192.907 12.5733 192.907 15.56C192.907 20.44 192.813 25.0667 192.627 29.44C192.573 30.6133 192.24 31.3733 191.627 31.72C191.04 32.0667 190.133 32.24 188.907 32.24C187.707 32.24 186.76 32 186.067 31.52C185.4 31.04 185.107 30.2133 185.187 29.04ZM239.328 20.96C239.275 24.88 238.155 27.84 235.968 29.84C233.808 31.8133 230.795 32.8 226.928 32.8C223.062 32.8 220.022 31.8133 217.808 29.84C215.622 27.84 214.528 24.88 214.528 20.96C214.528 13.36 214.448 7.68 214.288 3.92C214.262 2.72 214.568 1.89333 215.208 1.44C215.875 0.959997 216.808 0.719997 218.008 0.719997C219.235 0.719997 220.142 0.893331 220.728 1.24C221.315 1.58666 221.635 2.34667 221.688 3.52C221.848 6.74667 221.928 10.8 221.928 15.68V20.96C221.928 22.6933 222.382 23.9733 223.288 24.8C224.195 25.6 225.408 26 226.928 26C228.422 26 229.622 25.6 230.528 24.8C231.435 23.9733 231.902 22.6933 231.928 20.96C231.955 20 231.968 18.4533 231.968 16.32C231.968 12.5333 231.888 8.4 231.728 3.92C231.675 2.72 231.968 1.89333 232.608 1.44C233.275 0.959997 234.208 0.719997 235.408 0.719997C236.635 0.719997 237.542 0.893331 238.128 1.24C238.715 1.58666 239.035 2.34667 239.088 3.52C239.275 6.85333 239.368 10.7467 239.368 15.2C239.368 17.8667 239.355 19.7867 239.328 20.96ZM66.7945 60.512C66.7518 61.4507 67.0932 61.92 67.8185 61.92C69.0132 61.92 70.2825 61.8027 71.6265 61.568L72.2985 61.504C72.8105 61.504 73.1732 61.6747 73.3865 62.016C73.6212 62.336 73.7705 62.8587 73.8345 63.584C73.8985 64.0533 73.9305 64.48 73.9305 64.864C73.9305 65.4613 73.8238 65.92 73.6105 66.24C73.3972 66.5387 73.0132 66.7413 72.4585 66.848C70.9865 67.1253 69.4398 67.264 67.8185 67.264L65.0345 67.2C63.9038 67.1573 63.0185 66.7413 62.3785 65.952C61.7385 65.1627 61.4185 64.1173 61.4185 62.816L61.4505 56.256C61.4505 54.2293 61.4292 52.7253 61.3865 51.744C61.3652 50.8907 61.6105 50.2933 62.1225 49.952C62.6345 49.6107 63.4238 49.44 64.4905 49.44C65.3865 49.44 65.9838 49.6 66.2825 49.92C66.5812 50.2187 66.7518 50.7733 66.7945 51.584L66.8265 52.704C67.0825 52.7253 67.4772 52.736 68.0105 52.736C68.9278 52.736 69.7705 52.672 70.5385 52.544C70.8372 52.5013 71.0398 52.48 71.1465 52.48C71.7225 52.48 72.1278 52.6613 72.3625 53.024C72.6185 53.3653 72.7678 53.92 72.8105 54.688C72.8318 54.944 72.8425 55.296 72.8425 55.744C72.8425 56.384 72.7358 56.8533 72.5225 57.152C72.3305 57.4507 71.9465 57.6427 71.3705 57.728C70.3038 57.8987 69.2905 57.984 68.3305 57.984C68.0105 57.984 67.5092 57.9627 66.8265 57.92L66.7945 60.512ZM71.3705 43.296C71.4558 43.2747 71.5945 43.264 71.7865 43.264C72.3412 43.264 72.7465 43.4667 73.0025 43.872C73.2798 44.2773 73.4505 44.928 73.5145 45.824C73.5572 46.784 73.4505 47.4773 73.1945 47.904C72.9598 48.3093 72.4372 48.576 71.6265 48.704C71.1145 48.7893 70.5065 48.832 69.8025 48.832C69.2265 48.832 68.3198 48.7893 67.0825 48.704C65.8452 48.6187 64.9278 48.576 64.3305 48.576C63.7972 48.576 63.2852 48.608 62.7945 48.672C62.1118 48.7573 61.5572 48.5547 61.1305 48.064C60.7252 47.5733 60.5225 46.9227 60.5225 46.112C60.5225 45.1947 60.6718 44.5013 60.9705 44.032C61.2692 43.5627 61.7598 43.3067 62.4425 43.264C63.0398 43.2213 63.5092 43.2 63.8505 43.2C64.5118 43.2 65.4612 43.2427 66.6985 43.328C67.1678 43.3493 67.6265 43.3707 68.0745 43.392C68.5225 43.4133 68.9705 43.424 69.4185 43.424C70.1865 43.424 70.8372 43.3813 71.3705 43.296ZM88.6825 70.112C88.7252 70.9227 88.5332 71.4667 88.1065 71.744C87.7012 72.0427 87.0398 72.192 86.1225 72.192C85.1838 72.192 84.5012 72.0747 84.0745 71.84C83.6692 71.6053 83.4452 71.0827 83.4025 70.272C83.2318 66.4107 83.1465 61.8667 83.1465 56.64C83.1465 51.3707 83.2318 46.8267 83.4025 43.008C83.4452 42.176 83.6798 41.6 84.1065 41.28C84.5545 40.9387 85.2265 40.768 86.1225 40.768C87.0398 40.768 87.7012 40.928 88.1065 41.248C88.5332 41.5467 88.7252 42.1013 88.6825 42.912C88.5118 46.7307 88.4265 51.264 88.4265 56.512C88.4265 61.7173 88.5118 66.2507 88.6825 70.112ZM81.8025 69.472C81.8452 70.2827 81.6318 70.8267 81.1625 71.104C80.7145 71.4027 80.0212 71.552 79.0825 71.552C78.1652 71.552 77.5145 71.4347 77.1305 71.2C76.7678 70.9653 76.5652 70.4427 76.5225 69.632C76.3518 65.984 76.2665 61.8667 76.2665 57.28H75.2745C74.5918 57.28 74.1438 57.0773 73.9305 56.672C73.7385 56.2453 73.6425 55.552 73.6425 54.592C73.6425 53.632 73.7385 52.9493 73.9305 52.544C74.1438 52.1173 74.5918 51.904 75.2745 51.904H76.2985C76.3412 48.4907 76.4158 45.7387 76.5225 43.648C76.5652 42.816 76.7785 42.24 77.1625 41.92C77.5678 41.5787 78.2078 41.408 79.0825 41.408C80.0212 41.408 80.7145 41.568 81.1625 41.888C81.6318 42.1867 81.8452 42.7413 81.8025 43.552C81.6318 47.3707 81.5465 51.6907 81.5465 56.512C81.5465 61.2907 81.6318 65.6107 81.8025 69.472ZM96.7453 47.68C99.3479 47.9573 101.855 48.096 104.265 48.096C106.441 48.096 108.489 47.9893 110.409 47.776C110.495 47.52 110.537 47.2747 110.537 47.04C110.537 46.784 110.441 46.6133 110.249 46.528C110.057 46.4213 109.727 46.368 109.257 46.368L107.785 46.432C107.017 46.496 105.865 46.528 104.329 46.528C102.729 46.528 101.119 46.496 99.4973 46.432C97.8759 46.3467 96.5853 46.24 95.6253 46.112C94.9639 46.0053 94.5053 45.8347 94.2493 45.6C93.9933 45.344 93.8653 44.9387 93.8653 44.384L93.9293 43.488C94.0146 42.72 94.2173 42.176 94.5373 41.856C94.8573 41.536 95.3373 41.376 95.9773 41.376C96.2546 41.376 96.4679 41.3867 96.6173 41.408C98.9426 41.6213 101.471 41.728 104.201 41.728C106.249 41.728 108.02 41.6747 109.513 41.568C110.239 41.5253 110.761 41.504 111.081 41.504C112.788 41.504 114.036 41.8667 114.825 42.592C115.636 43.296 116.041 44.608 116.041 46.528C116.02 46.9547 115.999 47.3813 115.977 47.808C116.212 48.1067 116.372 48.5333 116.457 49.088C116.521 49.408 116.553 49.6853 116.553 49.92C116.553 50.4533 116.383 50.8587 116.041 51.136C115.721 51.4133 115.156 51.6373 114.345 51.808C111.529 52.3413 108.201 52.608 104.361 52.608C102.911 52.608 101.257 52.5547 99.4013 52.448C99.3799 52.5547 99.3693 52.6933 99.3693 52.864C99.3693 53.1413 99.4866 53.3653 99.7213 53.536C99.9773 53.6853 100.447 53.8133 101.129 53.92C101.833 54.0053 102.879 54.0693 104.265 54.112C105.609 54.1547 107.476 54.08 109.865 53.888C112.255 53.6747 113.929 53.4507 114.889 53.216C115.167 53.1307 115.444 53.088 115.721 53.088C116.191 53.088 116.564 53.2373 116.841 53.536C117.119 53.8133 117.353 54.2827 117.545 54.944C117.695 55.4987 117.769 55.9253 117.769 56.224C117.769 56.6293 117.652 56.9707 117.417 57.248C117.183 57.5253 116.799 57.7387 116.265 57.888C115.113 58.2293 113.577 58.496 111.657 58.688C109.759 58.8587 107.679 58.944 105.417 58.944C103.711 58.944 102.164 58.9013 100.777 58.816C98.8359 58.688 97.2786 58.368 96.1053 57.856C94.9319 57.344 94.1426 56.7147 93.7373 55.968C93.4173 55.3493 93.2573 54.6027 93.2573 53.728C93.2573 53.0667 93.3426 52.3413 93.5133 51.552C93.1079 51.232 92.9053 50.752 92.9053 50.112C92.9053 49.8347 92.9373 49.5253 93.0013 49.184C93.1079 48.544 93.2893 48.1067 93.5453 47.872C93.8013 47.6373 94.2279 47.52 94.8253 47.52C95.2093 47.52 95.8493 47.5733 96.7453 47.68ZM108.617 70.496C108.617 71.1787 108.372 71.6267 107.881 71.84C107.391 72.0747 106.644 72.192 105.641 72.192C104.617 72.192 103.86 72.0853 103.369 71.872C102.9 71.6587 102.665 71.2 102.665 70.496V65.824C102.175 65.8027 101.46 65.792 100.521 65.792C98.1959 65.792 95.9666 65.952 93.8333 66.272L93.1613 66.336C91.7533 66.336 91.0493 65.4933 91.0493 63.808C91.0493 62.9333 91.1666 62.272 91.4013 61.824C91.6359 61.3547 92.1693 61.0453 93.0013 60.896C94.9213 60.5547 97.0653 60.384 99.4333 60.384C100.671 60.384 101.641 60.4053 102.345 60.448C102.964 60.4693 104.063 60.544 105.641 60.672L108.937 60.928L109.865 60.992C111.785 61.0773 113.065 61.12 113.705 61.12C115.007 61.12 116.329 61.024 117.673 60.832C117.972 60.7893 118.175 60.768 118.281 60.768C118.985 60.768 119.487 61.024 119.785 61.536C120.084 62.0267 120.233 62.816 120.233 63.904C120.233 64.544 120.127 65.0453 119.913 65.408C119.7 65.7707 119.295 66.016 118.697 66.144C117.204 66.4427 115.593 66.592 113.865 66.592C112.628 66.592 110.879 66.5067 108.617 66.336V70.496ZM128.232 60.512C128.189 61.4507 128.531 61.92 129.256 61.92C130.451 61.92 131.72 61.8027 133.064 61.568L133.736 61.504C134.248 61.504 134.611 61.6747 134.824 62.016C135.059 62.336 135.208 62.8587 135.272 63.584C135.336 64.0533 135.368 64.48 135.368 64.864C135.368 65.4613 135.261 65.92 135.048 66.24C134.835 66.5387 134.451 66.7413 133.896 66.848C132.424 67.1253 130.877 67.264 129.256 67.264L126.472 67.2C125.341 67.1573 124.456 66.7413 123.816 65.952C123.176 65.1627 122.856 64.1173 122.856 62.816L122.888 56.256C122.888 54.2293 122.867 52.7253 122.824 51.744C122.803 50.8907 123.048 50.2933 123.56 49.952C124.072 49.6107 124.861 49.44 125.928 49.44C126.824 49.44 127.421 49.6 127.72 49.92C128.019 50.2187 128.189 50.7733 128.232 51.584L128.264 52.704C128.52 52.7253 128.915 52.736 129.448 52.736C130.365 52.736 131.208 52.672 131.976 52.544C132.275 52.5013 132.477 52.48 132.584 52.48C133.16 52.48 133.565 52.6613 133.8 53.024C134.056 53.3653 134.205 53.92 134.248 54.688C134.269 54.944 134.28 55.296 134.28 55.744C134.28 56.384 134.173 56.8533 133.96 57.152C133.768 57.4507 133.384 57.6427 132.808 57.728C131.741 57.8987 130.728 57.984 129.768 57.984C129.448 57.984 128.947 57.9627 128.264 57.92L128.232 60.512ZM132.808 43.296C132.893 43.2747 133.032 43.264 133.224 43.264C133.779 43.264 134.184 43.4667 134.44 43.872C134.717 44.2773 134.888 44.928 134.952 45.824C134.995 46.784 134.888 47.4773 134.632 47.904C134.397 48.3093 133.875 48.576 133.064 48.704C132.552 48.7893 131.944 48.832 131.24 48.832C130.664 48.832 129.757 48.7893 128.52 48.704C127.283 48.6187 126.365 48.576 125.768 48.576C125.235 48.576 124.723 48.608 124.232 48.672C123.549 48.7573 122.995 48.5547 122.568 48.064C122.163 47.5733 121.96 46.9227 121.96 46.112C121.96 45.1947 122.109 44.5013 122.408 44.032C122.707 43.5627 123.197 43.3067 123.88 43.264C124.477 43.2213 124.947 43.2 125.288 43.2C125.949 43.2 126.899 43.2427 128.136 43.328C128.605 43.3493 129.064 43.3707 129.512 43.392C129.96 43.4133 130.408 43.424 130.856 43.424C131.624 43.424 132.275 43.3813 132.808 43.296ZM150.12 70.112C150.163 70.9227 149.971 71.4667 149.544 71.744C149.139 72.0427 148.477 72.192 147.56 72.192C146.621 72.192 145.939 72.0747 145.512 71.84C145.107 71.6053 144.883 71.0827 144.84 70.272C144.669 66.4107 144.584 61.8667 144.584 56.64C144.584 51.3707 144.669 46.8267 144.84 43.008C144.883 42.176 145.117 41.6 145.544 41.28C145.992 40.9387 146.664 40.768 147.56 40.768C148.477 40.768 149.139 40.928 149.544 41.248C149.971 41.5467 150.163 42.1013 150.12 42.912C149.949 46.7307 149.864 51.264 149.864 56.512C149.864 61.7173 149.949 66.2507 150.12 70.112ZM143.24 69.472C143.283 70.2827 143.069 70.8267 142.6 71.104C142.152 71.4027 141.459 71.552 140.52 71.552C139.603 71.552 138.952 71.4347 138.568 71.2C138.205 70.9653 138.003 70.4427 137.96 69.632C137.789 65.984 137.704 61.8667 137.704 57.28H136.712C136.029 57.28 135.581 57.0773 135.368 56.672C135.176 56.2453 135.08 55.552 135.08 54.592C135.08 53.632 135.176 52.9493 135.368 52.544C135.581 52.1173 136.029 51.904 136.712 51.904H137.736C137.779 48.4907 137.853 45.7387 137.96 43.648C138.003 42.816 138.216 42.24 138.6 41.92C139.005 41.5787 139.645 41.408 140.52 41.408C141.459 41.408 142.152 41.568 142.6 41.888C143.069 42.1867 143.283 42.7413 143.24 43.552C143.069 47.3707 142.984 51.6907 142.984 56.512C142.984 61.2907 143.069 65.6107 143.24 69.472ZM158.183 47.68C160.785 47.9573 163.292 48.096 165.703 48.096C167.879 48.096 169.927 47.9893 171.847 47.776C171.932 47.52 171.975 47.2747 171.975 47.04C171.975 46.784 171.879 46.6133 171.687 46.528C171.495 46.4213 171.164 46.368 170.695 46.368L169.223 46.432C168.455 46.496 167.303 46.528 165.767 46.528C164.167 46.528 162.556 46.496 160.935 46.432C159.313 46.3467 158.023 46.24 157.063 46.112C156.401 46.0053 155.943 45.8347 155.687 45.6C155.431 45.344 155.303 44.9387 155.303 44.384L155.367 43.488C155.452 42.72 155.655 42.176 155.975 41.856C156.295 41.536 156.775 41.376 157.415 41.376C157.692 41.376 157.905 41.3867 158.055 41.408C160.38 41.6213 162.908 41.728 165.639 41.728C167.687 41.728 169.457 41.6747 170.951 41.568C171.676 41.5253 172.199 41.504 172.519 41.504C174.225 41.504 175.473 41.8667 176.263 42.592C177.073 43.296 177.479 44.608 177.479 46.528C177.457 46.9547 177.436 47.3813 177.415 47.808C177.649 48.1067 177.809 48.5333 177.895 49.088C177.959 49.408 177.991 49.6853 177.991 49.92C177.991 50.4533 177.82 50.8587 177.479 51.136C177.159 51.4133 176.593 51.6373 175.783 51.808C172.967 52.3413 169.639 52.608 165.799 52.608C164.348 52.608 162.695 52.5547 160.839 52.448C160.817 52.5547 160.807 52.6933 160.807 52.864C160.807 53.1413 160.924 53.3653 161.159 53.536C161.415 53.6853 161.884 53.8133 162.567 53.92C163.271 54.0053 164.316 54.0693 165.703 54.112C167.047 54.1547 168.913 54.08 171.303 53.888C173.692 53.6747 175.367 53.4507 176.327 53.216C176.604 53.1307 176.881 53.088 177.159 53.088C177.628 53.088 178.001 53.2373 178.279 53.536C178.556 53.8133 178.791 54.2827 178.983 54.944C179.132 55.4987 179.207 55.9253 179.207 56.224C179.207 56.6293 179.089 56.9707 178.855 57.248C178.62 57.5253 178.236 57.7387 177.703 57.888C176.551 58.2293 175.015 58.496 173.095 58.688C171.196 58.8587 169.116 58.944 166.855 58.944C165.148 58.944 163.601 58.9013 162.215 58.816C160.273 58.688 158.716 58.368 157.543 57.856C156.369 57.344 155.58 56.7147 155.175 55.968C154.855 55.3493 154.695 54.6027 154.695 53.728C154.695 53.0667 154.78 52.3413 154.951 51.552C154.545 51.232 154.343 50.752 154.343 50.112C154.343 49.8347 154.375 49.5253 154.439 49.184C154.545 48.544 154.727 48.1067 154.983 47.872C155.239 47.6373 155.665 47.52 156.263 47.52C156.647 47.52 157.287 47.5733 158.183 47.68ZM170.055 70.496C170.055 71.1787 169.809 71.6267 169.319 71.84C168.828 72.0747 168.081 72.192 167.079 72.192C166.055 72.192 165.297 72.0853 164.807 71.872C164.337 71.6587 164.103 71.2 164.103 70.496V65.824C163.612 65.8027 162.897 65.792 161.959 65.792C159.633 65.792 157.404 65.952 155.271 66.272L154.599 66.336C153.191 66.336 152.487 65.4933 152.487 63.808C152.487 62.9333 152.604 62.272 152.839 61.824C153.073 61.3547 153.607 61.0453 154.439 60.896C156.359 60.5547 158.503 60.384 160.871 60.384C162.108 60.384 163.079 60.4053 163.783 60.448C164.401 60.4693 165.5 60.544 167.079 60.672L170.375 60.928L171.303 60.992C173.223 61.0773 174.503 61.12 175.143 61.12C176.444 61.12 177.767 61.024 179.111 60.832C179.409 60.7893 179.612 60.768 179.719 60.768C180.423 60.768 180.924 61.024 181.223 61.536C181.521 62.0267 181.671 62.816 181.671 63.904C181.671 64.544 181.564 65.0453 181.351 65.408C181.137 65.7707 180.732 66.016 180.135 66.144C178.641 66.4427 177.031 66.592 175.303 66.592C174.065 66.592 172.316 66.5067 170.055 66.336V70.496Z" fill="#6B61F6"/>
</svg>
