<svg width="278" height="268" viewBox="0 0 278 268" fill="none" xmlns="http://www.w3.org/2000/svg">
<g filter="url(#filter0_d_456_153)">
<ellipse cx="139" cy="130" rx="135" ry="130" fill="black"/>
</g>
<path d="M163.039 107.154C144.651 86.8532 100.701 103.509 100.387 130.899" stroke="#6B61F6" stroke-width="100" stroke-linecap="round"/>
<circle cx="88" cy="113" r="5" fill="white"/>
<circle cx="159" cy="89" r="5" fill="white"/>
<path d="M109.342 131.258C109.342 131.258 121.462 135.905 134.916 129.412C148.37 122.919 155.264 113.059 155.264 113.059" stroke="white" stroke-width="8" stroke-linecap="round"/>
<path d="M203 93.7856C203 93.7856 214.387 87.5537 218.144 73.0952C221.901 58.6367 218.846 46.9999 218.846 46.9999" stroke="white" stroke-width="5" stroke-linecap="round"/>
<path d="M46.7556 197.461C46.7556 197.461 30.9429 182.016 38.0427 168.69C45.1425 155.364 62.6017 150.675 62.6017 150.675" stroke="white" stroke-width="5" stroke-linecap="round"/>
<path d="M148.56 213.663C148.56 213.663 130.643 212.823 125.122 199.043C119.602 185.264 124.827 171 124.827 171" stroke="white" stroke-width="5" stroke-linecap="round"/>
<path d="M199.732 191.592C199.732 191.592 203.098 178.913 194.962 166.588C186.826 154.263 176 148.929 176 148.929" stroke="white" stroke-width="5" stroke-linecap="round"/>
<path d="M90.5 219L91.0613 220.727H92.8776L91.4082 221.795L91.9695 223.523L90.5 222.455L89.0305 223.523L89.5918 221.795L88.1224 220.727H89.9387L90.5 219Z" fill="white"/>
<path d="M238.5 67L239.061 68.7275H240.878L239.408 69.7951L239.969 71.5225L238.5 70.4549L237.031 71.5225L237.592 69.7951L236.122 68.7275H237.939L238.5 67Z" fill="white"/>
<path d="M250.5 151L251.061 152.727H252.878L251.408 153.795L251.969 155.523L250.5 154.455L249.031 155.523L249.592 153.795L248.122 152.727H249.939L250.5 151Z" fill="white"/>
<path d="M176.5 197L177.061 198.727H178.878L177.408 199.795L177.969 201.523L176.5 200.455L175.031 201.523L175.592 199.795L174.122 198.727H175.939L176.5 197Z" fill="white"/>
<path d="M217.5 207L218.061 208.727H219.878L218.408 209.795L218.969 211.523L217.5 210.455L216.031 211.523L216.592 209.795L215.122 208.727H216.939L217.5 207Z" fill="white"/>
<path d="M226.5 110L227.061 111.727H228.878L227.408 112.795L227.969 114.523L226.5 113.455L225.031 114.523L225.592 112.795L224.122 111.727H225.939L226.5 110Z" fill="white"/>
<path d="M155.5 19L156.061 20.7275H157.878L156.408 21.7951L156.969 23.5225L155.5 22.4549L154.031 23.5225L154.592 21.7951L153.122 20.7275H154.939L155.5 19Z" fill="white"/>
<path d="M106.5 42L107.061 43.7275H108.878L107.408 44.7951L107.969 46.5225L106.5 45.4549L105.031 46.5225L105.592 44.7951L104.122 43.7275H105.939L106.5 42Z" fill="white"/>
<path d="M55.5 56L56.0613 57.7275H57.8776L56.4082 58.7951L56.9695 60.5225L55.5 59.4549L54.0305 60.5225L54.5918 58.7951L53.1224 57.7275H54.9387L55.5 56Z" fill="white"/>
<path d="M27.5 127L28.0613 128.727H29.8776L28.4082 129.795L28.9695 131.523L27.5 130.455L26.0305 131.523L26.5918 129.795L25.1224 128.727H26.9387L27.5 127Z" fill="white"/>
<path d="M60.5 182L61.0613 183.727H62.8776L61.4082 184.795L61.9695 186.523L60.5 185.455L59.0305 186.523L59.5918 184.795L58.1224 183.727H59.9387L60.5 182Z" fill="white"/>
<path d="M197.5 171L198.061 172.727H199.878L198.408 173.795L198.969 175.523L197.5 174.455L196.031 175.523L196.592 173.795L195.122 172.727H196.939L197.5 171Z" fill="white"/>
<path d="M150.5 233L151.061 234.727H152.878L151.408 235.795L151.969 237.523L150.5 236.455L149.031 237.523L149.592 235.795L148.122 234.727H149.939L150.5 233Z" fill="white"/>
<path d="M121.5 192L122.061 193.727H123.878L122.408 194.795L122.969 196.523L121.5 195.455L120.031 196.523L120.592 194.795L119.122 193.727H120.939L121.5 192Z" fill="white"/>
<path d="M197.5 171L198.061 172.727H199.878L198.408 173.795L198.969 175.523L197.5 174.455L196.031 175.523L196.592 173.795L195.122 172.727H196.939L197.5 171Z" fill="white"/>
<defs>
<filter id="filter0_d_456_153" x="0" y="0" width="278" height="268" filterUnits="userSpaceOnUse" color-interpolation-filters="sRGB">
<feFlood flood-opacity="0" result="BackgroundImageFix"/>
<feColorMatrix in="SourceAlpha" type="matrix" values="0 0 0 0 0 0 0 0 0 0 0 0 0 0 0 0 0 0 127 0" result="hardAlpha"/>
<feOffset dy="4"/>
<feGaussianBlur stdDeviation="2"/>
<feComposite in2="hardAlpha" operator="out"/>
<feColorMatrix type="matrix" values="0 0 0 0 0 0 0 0 0 0 0 0 0 0 0 0 0 0 0.25 0"/>
<feBlend mode="normal" in2="BackgroundImageFix" result="effect1_dropShadow_456_153"/>
<feBlend mode="normal" in="SourceGraphic" in2="effect1_dropShadow_456_153" result="shape"/>
</filter>
</defs>
</svg>
