<svg width="98" height="26" viewBox="0 0 98 26" fill="none" xmlns="http://www.w3.org/2000/svg">
<path d="M0.7952 2.8176H10.7504V19.1376H0.7952V2.8176ZM7.3776 5.6464H4.168V16.3088H7.3776V5.6464ZM18.2848 0.233599H21.7392V25.4208H18.2848V0.233599ZM8.928 9.3728H14.5856V12.2832H8.928V9.3728ZM13.144 0.614399H16.544V24.2784H13.144V0.614399ZM42.4091 0.260799H46.0539V18.3488H42.4091V0.260799ZM29.2715 22.1024H46.6795V24.9856H29.2715V22.1024ZM29.2715 16.5264H32.8891V23.272H29.2715V16.5264ZM32.3451 1.8384C36.2075 1.8384 39.1723 4.504 39.1723 8.2304C39.1723 11.9296 36.2075 14.6224 32.3451 14.6224C28.4827 14.6224 25.4907 11.9296 25.4907 8.2304C25.4907 4.504 28.4827 1.8384 32.3451 1.8384ZM32.3451 4.9664C30.4683 4.9664 29.0267 6.1632 29.0267 8.2304C29.0267 10.2704 30.4683 11.4672 32.3451 11.4672C34.1947 11.4672 35.6363 10.2704 35.6363 8.2304C35.6363 6.1632 34.1947 4.9664 32.3451 4.9664ZM61.5286 1.4848C66.8326 1.4848 70.9398 4.3952 70.9398 8.7744C70.9398 13.1808 66.8326 16.064 61.5286 16.064C56.2246 16.064 52.1174 13.1808 52.1174 8.7744C52.1174 4.3952 56.2246 1.4848 61.5286 1.4848ZM61.5286 4.4224C58.1014 4.4224 55.6534 6.0544 55.6534 8.7744C55.6534 11.4672 58.1014 13.0992 61.5286 13.0992C64.9558 13.0992 67.4038 11.4672 67.4038 8.7744C67.4038 6.0544 64.9558 4.4224 61.5286 4.4224ZM50.159 19.4368H72.9526V22.4016H50.159V19.4368ZM75.1808 19.7088H97.9744V22.6464H75.1808V19.7088ZM84.728 14.9488H88.3456V20.9056H84.728V14.9488ZM77.7376 1.8656H95.4176V10.2432H81.3824V14.4864H77.792V7.4144H91.8272V4.7216H77.7376V1.8656ZM77.792 13.0448H95.9888V15.9552H77.792V13.0448Z" fill="#3A3A3A"/>
</svg>
